<svg xmlns="http://www.w3.org/2000/svg" style="border: 0 !important; clip: rect(0 0 0 0) !important; height: 1px !important; margin: -1px !important; overflow: hidden !important; padding: 0 !important; position: absolute !important; width: 1px !important;" class="root-svg-symbols-element">
  <defs>
      <clipPath id="a"><path fill="#fff" d="M1034 747.29a6.29 6.29 0 0 1 6.29-6.29h177.42a6.29 6.29 0 0 1 6.29 6.29v42.32a6.29 6.29 0 0 1-6.29 6.29H1040.3a6.29 6.29 0 0 1-6.29-6.29z"/></clipPath><linearGradient id="b" x1="1064.5" x2="1064.5" y1="753.99" y2="766.44" gradientUnits="userSpaceOnUse"><stop offset="0" stop-color="#fbda09"/><stop offset="1" stop-color="#ffbc00"/></linearGradient><linearGradient id="c" x1="1047" x2="1059.48" y1="771.47" y2="764.68" gradientUnits="userSpaceOnUse"><stop offset="0" stop-color="#01e2ff"/><stop offset="1" stop-color="#01c4ff"/></linearGradient><linearGradient id="d" x1="1049.48" x2="1066.63" y1="751.22" y2="764.56" gradientUnits="userSpaceOnUse"><stop offset="0" stop-color="#28d781"/><stop offset="1" stop-color="#02f076"/></linearGradient><linearGradient id="e" x1="1067.6" x2="1048.93" y1="771.31" y2="785.32" gradientUnits="userSpaceOnUse"><stop offset="0" stop-color="#f2414e"/><stop offset="1" stop-color="#e02554"/></linearGradient>
<linearGradient id="&#x411;&#x435;&#x437;&#x44B;&#x43C;&#x44F;&#x43D;&#x43D;&#x44B;&#x439;_&#x433;&#x440;&#x430;&#x434;&#x438;&#x435;&#x43D;&#x442;" x1="-197.48" y1="413.46" x2="-198.78" y2="412.79" gradientTransform="matrix(18.09 0 0 -35.08 3603.9 14517.27)" gradientUnits="userSpaceOnUse"><stop offset="0" stop-color="#00a0ff"/><stop offset=".01" stop-color="#00a1ff"/><stop offset=".26" stop-color="#00beff"/><stop offset=".51" stop-color="#00d2ff"/><stop offset=".76" stop-color="#00dfff"/><stop offset="1" stop-color="#00e3ff"/></linearGradient><linearGradient id="&#x411;&#x435;&#x437;&#x44B;&#x43C;&#x44F;&#x43D;&#x43D;&#x44B;&#x439;_&#x433;&#x440;&#x430;&#x434;&#x438;&#x435;&#x43D;&#x442;_2" x1="-194.14" y1="392.79" x2="-196.53" y2="392.79" gradientTransform="matrix(14.21 0 0 -11.98 2806.56 4734.42)" gradientUnits="userSpaceOnUse"><stop offset="0" stop-color="#ffe000"/><stop offset=".41" stop-color="#ffbd00"/><stop offset=".78" stop-color="orange"/><stop offset="1" stop-color="#ff9c00"/></linearGradient><linearGradient id="&#x411;&#x435;&#x437;&#x44B;&#x43C;&#x44F;&#x43D;&#x43D;&#x44B;&#x439;_&#x433;&#x440;&#x430;&#x434;&#x438;&#x435;&#x43D;&#x442;_3" x1="-200.15" y1="403.39" x2="-201.51" y2="401.62" gradientTransform="matrix(23.37 0 0 -18.01 4711.88 7296.32)" gradientUnits="userSpaceOnUse"><stop offset="0" stop-color="#ff3a44"/><stop offset="1" stop-color="#c31162"/></linearGradient><linearGradient id="&#x411;&#x435;&#x437;&#x44B;&#x43C;&#x44F;&#x43D;&#x43D;&#x44B;&#x439;_&#x433;&#x440;&#x430;&#x434;&#x438;&#x435;&#x43D;&#x442;_4" x1="-201.2" y1="404.11" x2="-200.59" y2="403.32" gradientTransform="matrix(23.37 0 0 -18.01 4711.86 7278.31)" gradientUnits="userSpaceOnUse"><stop offset="0" stop-color="#32a071"/><stop offset=".07" stop-color="#2da771"/><stop offset=".48" stop-color="#15cf74"/><stop offset=".8" stop-color="#06e775"/><stop offset="1" stop-color="#00f076"/></linearGradient>
<linearGradient id="&#x411;&#x435;&#x437;&#x44B;&#x43C;&#x44F;&#x43D;&#x43D;&#x44B;&#x439;_&#x433;&#x440;&#x430;&#x434;&#x438;&#x435;&#x43D;&#x442;" x1="-197.48" y1="413.46" x2="-198.78" y2="412.79" gradientTransform="matrix(18.09 0 0 -35.08 3603.9 14517.27)" gradientUnits="userSpaceOnUse"><stop offset="0" stop-color="#00a0ff"/><stop offset=".01" stop-color="#00a1ff"/><stop offset=".26" stop-color="#00beff"/><stop offset=".51" stop-color="#00d2ff"/><stop offset=".76" stop-color="#00dfff"/><stop offset="1" stop-color="#00e3ff"/></linearGradient><linearGradient id="&#x411;&#x435;&#x437;&#x44B;&#x43C;&#x44F;&#x43D;&#x43D;&#x44B;&#x439;_&#x433;&#x440;&#x430;&#x434;&#x438;&#x435;&#x43D;&#x442;_2" x1="-194.14" y1="392.79" x2="-196.53" y2="392.79" gradientTransform="matrix(14.21 0 0 -11.98 2806.56 4734.42)" gradientUnits="userSpaceOnUse"><stop offset="0" stop-color="#ffe000"/><stop offset=".41" stop-color="#ffbd00"/><stop offset=".78" stop-color="orange"/><stop offset="1" stop-color="#ff9c00"/></linearGradient><linearGradient id="&#x411;&#x435;&#x437;&#x44B;&#x43C;&#x44F;&#x43D;&#x43D;&#x44B;&#x439;_&#x433;&#x440;&#x430;&#x434;&#x438;&#x435;&#x43D;&#x442;_3" x1="-200.15" y1="403.39" x2="-201.51" y2="401.62" gradientTransform="matrix(23.37 0 0 -18.01 4711.88 7296.32)" gradientUnits="userSpaceOnUse"><stop offset="0" stop-color="#ff3a44"/><stop offset="1" stop-color="#c31162"/></linearGradient><linearGradient id="&#x411;&#x435;&#x437;&#x44B;&#x43C;&#x44F;&#x43D;&#x43D;&#x44B;&#x439;_&#x433;&#x440;&#x430;&#x434;&#x438;&#x435;&#x43D;&#x442;_4" x1="-201.2" y1="404.11" x2="-200.59" y2="403.32" gradientTransform="matrix(23.37 0 0 -18.01 4711.86 7278.31)" gradientUnits="userSpaceOnUse"><stop offset="0" stop-color="#32a071"/><stop offset=".07" stop-color="#2da771"/><stop offset=".48" stop-color="#15cf74"/><stop offset=".8" stop-color="#06e775"/><stop offset="1" stop-color="#00f076"/></linearGradient>
  </defs>
    <symbol id="android" viewBox="0 0 190 55">
      <path d="M0 6.29A6.29 6.29 0 0 1 6.29 0H183.7a6.29 6.29 0 0 1 6.3 6.29V48.6a6.29 6.29 0 0 1-6.29 6.29H6.3A6.29 6.29 0 0 1 0 48.61z"/><path fill="none" stroke="#8f8f8f" stroke-miterlimit="50" stroke-opacity=".3" stroke-width="1.26" d="M1034 747.29a6.29 6.29 0 0 1 6.29-6.29h177.42a6.29 6.29 0 0 1 6.29 6.29v42.32a6.29 6.29 0 0 1-6.29 6.29H1040.3a6.29 6.29 0 0 1-6.29-6.29z" clip-path="url(&quot;#a&quot;)" transform="translate(-1034 -741)"/><path fill="#fff" d="M95 13.5a4.5 4.5 0 1 1 9 0 4.5 4.5 0 0 1-9 0zm4 2.5a3 3 0 1 0 0-6 3 3 0 0 0 0 6zm-32-6h5v1h-4v3h4v1h-4v2h4v1h-5zm8 8v-7h-2v-1h6v1h-3v7zm13 0v-7h-2v-1h6v1h-3v7zm-5 0v-8h1v8zm22 0v-8h1.63l3.37 5.47V10h1v7.1l.79 1.28h-1.38l-.23-.38H110v-.29l-4-6.5V18zm-43-5h3.79l-.04 1.19H62z"/><path fill="#fff" d="M61.44 17.82c2.5.03 4.58-1.72 4.16-4.75v-.05h-1.1l.01.39c0 2.17-1.26 3.19-3.03 3.19a3.2 3.2 0 0 1-3.21-3.19 3.2 3.2 0 0 1 3.21-3.18c.89 0 1.65.3 2.2.85l.86-.86A4.18 4.18 0 0 0 61.44 9 4.43 4.43 0 0 0 57 13.41a4.42 4.42 0 0 0 4.44 4.41zM143.13 25s4.1.69 4.1 5.38c0 4.68-4.1 5.38-4.1 5.38H136V25zm-5.75 2.6v5.78h4.84s2.21 0 2.21-2.89-2.21-2.89-2.21-2.89z"/><path fill="#fff" d="M135 43V25h3v18zm14 0V25h3v18zm14.08-8.01v7.63h-2.52v-1.24c-.7.57-1.8 1.1-3.55 1.21-4.01.24-4.01-3.39-4.01-3.64 0-.24-.2-3.21 2.99-3.68a7.84 7.84 0 0 1 4.57.58v-.52c-.18-.68-.73-1.93-2.4-1.93-2.29 0-2.8 1.23-2.8 1.23l-2.09-1.23s1.17-2.4 4.69-2.4c4.34 0 5.11 2.96 5.12 3.99zm-2.7 2.64s-4.84-1.3-5.01 1.4c-.17 2.71 4.65 1.41 5.08-.51 0-.61-.07-.89-.07-.89zm11.56-6.57h2.52l-6.81 16.07h-2.51l2.35-5.55L163 31h2.52l3.22 7.62zm-41.97 4.41s-1.1-4.47-5.32-4.47c-4.22 0-5.65 3.77-5.65 6 0 2.32 1.81 5.88 5.9 5.88 3.34 0 4.97-2.62 4.97-2.62l-2.02-1.36s-1.06 1.66-2.93 1.65c-2.39-.01-2.91-1.82-2.91-1.82zm-8.4 1.25s-.41-2.82 2.84-3.41c1.53-.28 2.53 1.23 2.53 1.23zM115 42V25h3v17zm-4.05-10.62v1.09s-1.07-1.53-3.3-1.47a5.79 5.79 0 0 0-5.65 5.94 5.82 5.82 0 0 0 5.62 5.92c2.37 0 3.33-1.48 3.33-1.48v1.19c0 .86-.33 3.35-3.08 3.35-2.42 0-3.11-2.15-3.11-2.15l-2.26.94s1.28 3.5 5.25 3.5c3.97 0 5.66-2.98 5.66-5.79V31.4zM105 36.5c0-1.93 1.34-3.5 3-3.5s3 1.57 3 3.5-1.34 3.5-3 3.5-3-1.57-3-3.5zM89 37a6 6 0 1 1 12 0 6 6 0 0 1-12 0zm6.5 3a3.5 3.5 0 1 0 0-7 3.5 3.5 0 0 0 0 7zM76 37a6 6 0 1 1 12 0 6 6 0 0 1-12 0zm6.5 3a3.5 3.5 0 1 0 0-7 3.5 3.5 0 0 0 0 7zM66 32h7.9l-.07 2.48H66z"/><path fill="#fff" d="M66.27 42.39c5.21.05 9.55-3.59 8.69-9.92v-.09h-2.31c.02.27.03.54.02.82 0 4.51-2.62 6.63-6.32 6.63a6.66 6.66 0 0 1-6.69-6.63c0-3.67 3-6.64 6.69-6.64a6.3 6.3 0 0 1 4.58 1.77l1.81-1.8A8.75 8.75 0 0 0 66.27 24 9.24 9.24 0 0 0 57 33.2a9.23 9.23 0 0 0 9.27 9.19z"/><path fill="url(#b)" d="M1063.77 750.99l19.28 33.69h-38.55z" transform="translate(-1034 -741)"/><path fill="url(#c)" d="M1047.23 751l17.58 17.37-17.81 18.05z" transform="translate(-1034 -741)"/><path fill="url(#d)" d="M1044 747l21.19 20.95 6.3-5.98z" transform="translate(-1034 -741)"/><path fill="url(#e)" d="M1065.17 768l9.65 9.66-28.82 9.67z" transform="translate(-1034 -741)"/>
    </symbol>
    <symbol id="angle-left" viewBox="0 0 13 24">
      <path fill="none" d="M1 1l10.74 10.74L1 22.2"/>
    </symbol>
    <symbol id="appstore-hovered" viewBox="0 0 190 54">
      <title>&#x420;&#x435;&#x441;&#x443;&#x440;&#x441; 1</title><g id="&#x421;&#x43B;&#x43E;&#x439;_2" data-name="&#x421;&#x43B;&#x43E;&#x439; 2"><g id="&#x421;&#x43B;&#x43E;&#x439;_1-2" data-name="&#x421;&#x43B;&#x43E;&#x439; 1"><g id="mobile"><g id="Appstore-hovered"><g id="backfround-copy"><rect id="path-1" class="cls-1" width="190" height="54" rx="5.03" ry="5.03"/><rect class="cls-2" x=".31" y=".31" width="189.37" height="53.37" rx="5.03" ry="5.03"/></g><path id="App-Store" class="cls-3" d="M70.24 41.47h3.08l-6.74-18.54h-3.11l-6.73 18.54h3l1.72-4.92h7.11zM64.88 26.3h.22l2.7 7.84h-5.63zm16.59 1a4.9 4.9 0 0 0-4.42 2.54h-.21v-2.36h-2.67V46H77v-6.65h.22a4.59 4.59 0 0 0 4.28 2.35c3.55 0 5.82-2.79 5.82-7.23s-2.26-7.22-5.84-7.22zm-.79 12c-2.33 0-3.79-1.82-3.79-4.74s1.46-4.75 3.8-4.75 3.76 1.79 3.76 4.74-1.45 4.67-3.77 4.67zm15.2-12a4.9 4.9 0 0 0-4.42 2.54h-.21v-2.36h-2.67V46h2.78v-6.65h.22a4.59 4.59 0 0 0 4.33 2.35c3.55 0 5.82-2.79 5.82-7.23s-2.26-7.22-5.84-7.22zm-.79 12c-2.33 0-3.79-1.82-3.79-4.74s1.46-4.75 3.8-4.75 3.76 1.79 3.76 4.74-1.41 4.75-3.77 4.75zm12.51-2.74c.21 3.31 3 5.43 7.12 5.43 4.42 0 7.19-2.22 7.19-5.77 0-2.79-1.58-4.33-5.4-5.22l-2.05-.5c-2.46-.63-3.46-1.39-3.46-2.71 0-1.67 1.52-2.76 3.81-2.76s3.67 1.07 3.94 2.77h2.82c-.17-3.12-2.93-5.32-6.72-5.32-4.07 0-6.78 2.2-6.78 5.5 0 2.72 1.54 4.34 4.91 5.13l2.4.58c2.47.58 3.55 1.43 3.55 2.84 0 1.64-1.71 2.84-4 2.84-2.49 0-4.23-1.12-4.47-2.88zm16.7-12.4v3.46H122v2.33h2.31v7.9c0 2.7 1.23 3.78 4.32 3.78a8.58 8.58 0 0 0 1.49-.14v-2.3a8.75 8.75 0 0 1-1 .06c-1.38 0-2-.64-2-2.11v-7.27h3.15v-2.33h-3.15v-3.45zm12.82 15.2c-2.42 0-3.77-1.76-3.77-4.82s1.36-4.8 3.77-4.8 3.77 1.77 3.77 4.8-1.37 4.82-3.77 4.82zm0 2.45c4.11 0 6.63-2.74 6.63-7.27s-2.53-7.26-6.63-7.26-6.64 2.75-6.64 7.26 2.52 7.27 6.64 7.27zm7.9-.27h2.78v-8.33a3.29 3.29 0 0 1 3.58-3.29 7.65 7.65 0 0 1 1.54.17v-2.73a5.86 5.86 0 0 0-1.23-.12 3.8 3.8 0 0 0-3.79 2.38h-.21v-2.14H145zm14.15-11.91a3.38 3.38 0 0 1 3.46 3.62h-7.11a3.59 3.59 0 0 1 3.64-3.62zm3.45 8.13c-.52 1.09-1.67 1.7-3.35 1.7-2.22 0-3.66-1.55-3.75-4v-.15h9.94v-1c0-4.39-2.36-7.05-6.28-7.05s-6.48 2.74-6.48 7.26 2.47 7.22 6.5 7.22c3.22 0 5.47-1.54 6.1-4z"/><path id="Download-on-the" class="cls-3" d="M59.34 8.46v8.83h3.21c2.65 0 4.18-1.62 4.18-4.44s-1.54-4.39-4.18-4.39zm1.38 1.25h1.67c1.84 0 2.93 1.16 2.93 3.16S64.25 16 62.39 16h-1.67zm10.86 6.54c-1.15 0-1.8-.84-1.8-2.29s.65-2.29 1.8-2.29 1.8.84 1.8 2.29-.65 2.29-1.8 2.29zm0 1.17c2 0 3.16-1.3 3.16-3.46s-1.21-3.46-3.16-3.46-3.17 1.31-3.17 3.5 1.2 3.46 3.16 3.46zm13.52-6.79h-1.32l-1.19 5.08h-.1l-1.39-5.08h-1.26l-1.38 5.08h-.1l-1.2-5.08h-1.34l1.85 6.66H79l1.38-4.91h.1l1.38 4.91h1.37zm1.68 6.66h1.32v-3.9a1.58 1.58 0 0 1 1.72-1.69c1 0 1.46.53 1.46 1.6v4h1.32V13a2.39 2.39 0 0 0-4.46-1.29h-.1v-1.08h-1.25zm8.06 0h1.32V8h-1.31zm6.45-1c-1.15 0-1.8-.84-1.8-2.29s.65-2.29 1.8-2.29 1.8.84 1.8 2.29-.65 2.29-1.8 2.29zm0 1.17c2 0 3.16-1.3 3.16-3.46s-1.21-3.46-3.16-3.46-3.15 1.27-3.15 3.46 1.2 3.46 3.16 3.46zm7.25-1.13c-.72 0-1.24-.35-1.24-.95s.42-.9 1.34-1l1.64-.1v.56a1.58 1.58 0 0 1-1.74 1.46zm-.34 1.11a2.26 2.26 0 0 0 2-1h.1v.94h1.27v-4.64c0-1.41-.95-2.24-2.63-2.24-1.52 0-2.6.73-2.74 1.88h1.28c.15-.47.66-.74 1.4-.74.9 0 1.37.4 1.37 1.1v.58l-1.82.1c-1.59.1-2.49.79-2.49 2a2 2 0 0 0 2.23 2zm8 0a2.33 2.33 0 0 0 2.1-1.16h.1v1.05h1.27V8h-1.27v3.66h-.1a2.21 2.21 0 0 0-2.06-1.17c-1.69 0-2.78 1.33-2.78 3.44s1.08 3.44 2.78 3.44zm.38-5.7c1.11 0 1.8.87 1.8 2.26s-.69 2.26-1.8 2.26-1.79-.85-1.79-2.26.68-2.26 1.79-2.26zm12 4.55c-1.15 0-1.8-.84-1.8-2.29s.65-2.29 1.8-2.29 1.8.84 1.8 2.29-.65 2.29-1.8 2.29zm0 1.17c2 0 3.16-1.3 3.16-3.46s-1.21-3.46-3.16-3.46-3.16 1.31-3.16 3.46 1.2 3.46 3.16 3.46zm5.06-.13H135v-3.9a1.58 1.58 0 0 1 1.72-1.69c1 0 1.46.53 1.46 1.6v4h1.32V13a2.39 2.39 0 0 0-4.5-1.31h-.1v-1.06h-1.27zM145.91 9v1.65h-1.1v1.11h1.1v3.76c0 1.28.58 1.8 2.06 1.8a4.09 4.09 0 0 0 .71-.07v-1.1a4.17 4.17 0 0 1-.49 0c-.66 0-.95-.31-.95-1v-3.38h1.5v-1.11h-1.5V9zm4.71 8.28h1.32V13.4a1.61 1.61 0 0 1 1.75-1.69c1 0 1.5.54 1.5 1.6v4h1.32V13a2.21 2.21 0 0 0-2.37-2.48A2.16 2.16 0 0 0 152 11.7h-.1V8h-1.31zm10.83-5.67a1.61 1.61 0 0 1 1.65 1.73h-3.4a1.71 1.71 0 0 1 1.74-1.73zm1.64 3.87a1.61 1.61 0 0 1-1.59.81 1.76 1.76 0 0 1-1.78-1.91v-.07h4.73v-.46c0-2.09-1.13-3.36-3-3.36s-3.09 1.35-3.09 3.48 1.18 3.44 3.1 3.44a2.72 2.72 0 0 0 2.9-1.93z"/><g id="logo_apple" data-name="logo apple"><path id="Fill-2" class="cls-3" d="M40.75 27.26a8.06 8.06 0 0 1 3.86-6.76 8.32 8.32 0 0 0-6.54-3.5c-2.75-.29-5.42 1.64-6.82 1.64s-3.58-1.64-5.91-1.58A8.71 8.71 0 0 0 18 21.5c-3.16 5.5-.79 13.5 2.24 17.88 1.52 2.16 3.29 4.57 5.62 4.49s3.12-1.44 5.86-1.44 3.51 1.44 5.88 1.38 4-2.17 5.44-4.35a17.76 17.76 0 0 0 2.49-5 7.8 7.8 0 0 1-4.78-7.16"/><path id="Fill-3" class="cls-3" d="M36.28 14.08a7.9 7.9 0 0 0 1.82-5.69 8.15 8.15 0 0 0-5.26 2.7A7.52 7.52 0 0 0 31 16.57a6.73 6.73 0 0 0 5.3-2.49"/></g></g></g></g></g>
    </symbol>
    <symbol id="appstore" viewBox="0 0 190 54">
      <title>&#x420;&#x435;&#x441;&#x443;&#x440;&#x441; 2</title><g id="&#x421;&#x43B;&#x43E;&#x439;_2" data-name="&#x421;&#x43B;&#x43E;&#x439; 2"><g id="&#x421;&#x43B;&#x43E;&#x439;_1-2" data-name="&#x421;&#x43B;&#x43E;&#x439; 1"><g id="mobile"><g id="Appstore"><g id="backfround-copy"><rect id="path-1" width="190" height="54" rx="5.03" ry="5.03"/><rect class="cls-1" x=".31" y=".31" width="189.37" height="53.37" rx="5.03" ry="5.03"/></g><path id="App-Store" class="cls-2" d="M70.24 41.47h3.08l-6.74-18.54h-3.11l-6.73 18.54h3l1.72-4.92h7.11zM64.88 26.3h.22l2.7 7.84h-5.63zm16.59 1a4.9 4.9 0 0 0-4.42 2.54h-.21v-2.36h-2.67V46H77v-6.65h.22a4.59 4.59 0 0 0 4.28 2.35c3.55 0 5.82-2.79 5.82-7.23s-2.26-7.22-5.84-7.22zm-.79 12c-2.33 0-3.79-1.82-3.79-4.74s1.46-4.75 3.8-4.75 3.76 1.79 3.76 4.74-1.45 4.67-3.77 4.67zm15.2-12a4.9 4.9 0 0 0-4.42 2.54h-.21v-2.36h-2.67V46h2.78v-6.65h.22a4.59 4.59 0 0 0 4.33 2.35c3.55 0 5.82-2.79 5.82-7.23s-2.26-7.22-5.84-7.22zm-.79 12c-2.33 0-3.79-1.82-3.79-4.74s1.46-4.75 3.8-4.75 3.76 1.79 3.76 4.74-1.41 4.75-3.77 4.75zm12.51-2.74c.21 3.31 3 5.43 7.12 5.43 4.42 0 7.19-2.22 7.19-5.77 0-2.79-1.58-4.33-5.4-5.22l-2.05-.5c-2.46-.63-3.46-1.39-3.46-2.71 0-1.67 1.52-2.76 3.81-2.76s3.67 1.07 3.94 2.77h2.82c-.17-3.12-2.93-5.32-6.72-5.32-4.07 0-6.78 2.2-6.78 5.5 0 2.72 1.54 4.34 4.91 5.13l2.4.58c2.47.58 3.55 1.43 3.55 2.84 0 1.64-1.71 2.84-4 2.84-2.49 0-4.23-1.12-4.47-2.88zm16.7-12.4v3.46H122v2.33h2.31v7.9c0 2.7 1.23 3.78 4.32 3.78a8.58 8.58 0 0 0 1.49-.14v-2.3a8.75 8.75 0 0 1-1 .06c-1.38 0-2-.64-2-2.11v-7.27h3.15v-2.33h-3.15v-3.45zm12.82 15.2c-2.42 0-3.77-1.76-3.77-4.82s1.36-4.8 3.77-4.8 3.77 1.77 3.77 4.8-1.37 4.82-3.77 4.82zm0 2.45c4.11 0 6.63-2.74 6.63-7.27s-2.53-7.26-6.63-7.26-6.64 2.75-6.64 7.26 2.52 7.27 6.64 7.27zm7.9-.27h2.78v-8.33a3.29 3.29 0 0 1 3.58-3.29 7.65 7.65 0 0 1 1.54.17v-2.73a5.86 5.86 0 0 0-1.23-.12 3.8 3.8 0 0 0-3.79 2.38h-.21v-2.14H145zm14.15-11.91a3.38 3.38 0 0 1 3.46 3.62h-7.11a3.59 3.59 0 0 1 3.64-3.62zm3.45 8.13c-.52 1.09-1.67 1.7-3.35 1.7-2.22 0-3.66-1.55-3.75-4v-.15h9.94v-1c0-4.39-2.36-7.05-6.28-7.05s-6.48 2.74-6.48 7.26 2.47 7.22 6.5 7.22c3.22 0 5.47-1.54 6.1-4z"/><path id="Download-on-the" class="cls-2" d="M59.34 8.46v8.83h3.21c2.65 0 4.18-1.62 4.18-4.44s-1.54-4.39-4.18-4.39zm1.38 1.25h1.67c1.84 0 2.93 1.16 2.93 3.16S64.25 16 62.39 16h-1.67zm10.86 6.54c-1.15 0-1.8-.84-1.8-2.29s.65-2.29 1.8-2.29 1.8.84 1.8 2.29-.65 2.29-1.8 2.29zm0 1.17c2 0 3.16-1.3 3.16-3.46s-1.21-3.46-3.16-3.46-3.17 1.31-3.17 3.5 1.2 3.46 3.16 3.46zm13.52-6.79h-1.32l-1.19 5.08h-.1l-1.39-5.08h-1.26l-1.38 5.08h-.1l-1.2-5.08h-1.34l1.85 6.66H79l1.38-4.91h.1l1.38 4.91h1.37zm1.68 6.66h1.32v-3.9a1.58 1.58 0 0 1 1.72-1.69c1 0 1.46.53 1.46 1.6v4h1.32V13a2.39 2.39 0 0 0-4.46-1.29h-.1v-1.08h-1.25zm8.06 0h1.32V8h-1.31zm6.45-1c-1.15 0-1.8-.84-1.8-2.29s.65-2.29 1.8-2.29 1.8.84 1.8 2.29-.65 2.29-1.8 2.29zm0 1.17c2 0 3.16-1.3 3.16-3.46s-1.21-3.46-3.16-3.46-3.15 1.27-3.15 3.46 1.2 3.46 3.16 3.46zm7.25-1.13c-.72 0-1.24-.35-1.24-.95s.42-.9 1.34-1l1.64-.1v.56a1.58 1.58 0 0 1-1.74 1.46zm-.34 1.11a2.26 2.26 0 0 0 2-1h.1v.94h1.27v-4.64c0-1.41-.95-2.24-2.63-2.24-1.52 0-2.6.73-2.74 1.88h1.28c.15-.47.66-.74 1.4-.74.9 0 1.37.4 1.37 1.1v.58l-1.82.1c-1.59.1-2.49.79-2.49 2a2 2 0 0 0 2.23 2zm8 0a2.33 2.33 0 0 0 2.1-1.16h.1v1.05h1.27V8h-1.27v3.66h-.1a2.21 2.21 0 0 0-2.06-1.17c-1.69 0-2.78 1.33-2.78 3.44s1.08 3.44 2.78 3.44zm.38-5.7c1.11 0 1.8.87 1.8 2.26s-.69 2.26-1.8 2.26-1.79-.85-1.79-2.26.68-2.26 1.79-2.26zm12 4.55c-1.15 0-1.8-.84-1.8-2.29s.65-2.29 1.8-2.29 1.8.84 1.8 2.29-.65 2.29-1.8 2.29zm0 1.17c2 0 3.16-1.3 3.16-3.46s-1.21-3.46-3.16-3.46-3.16 1.31-3.16 3.46 1.2 3.46 3.16 3.46zm5.06-.13H135v-3.9a1.58 1.58 0 0 1 1.72-1.69c1 0 1.46.53 1.46 1.6v4h1.32V13a2.39 2.39 0 0 0-4.5-1.31h-.1v-1.06h-1.27zM145.91 9v1.65h-1.1v1.11h1.1v3.76c0 1.28.58 1.8 2.06 1.8a4.09 4.09 0 0 0 .71-.07v-1.1a4.17 4.17 0 0 1-.49 0c-.66 0-.95-.31-.95-1v-3.38h1.5v-1.11h-1.5V9zm4.71 8.28h1.32V13.4a1.61 1.61 0 0 1 1.75-1.69c1 0 1.5.54 1.5 1.6v4h1.32V13a2.21 2.21 0 0 0-2.37-2.48A2.16 2.16 0 0 0 152 11.7h-.1V8h-1.31zm10.83-5.67a1.61 1.61 0 0 1 1.65 1.73h-3.4a1.71 1.71 0 0 1 1.74-1.73zm1.64 3.87a1.61 1.61 0 0 1-1.59.81 1.76 1.76 0 0 1-1.78-1.91v-.07h4.73v-.46c0-2.09-1.13-3.36-3-3.36s-3.09 1.35-3.09 3.48 1.18 3.44 3.1 3.44a2.72 2.72 0 0 0 2.9-1.93z"/><g id="logo_apple" data-name="logo apple"><path id="Fill-2" class="cls-2" d="M40.75 27.26a8.06 8.06 0 0 1 3.86-6.76 8.32 8.32 0 0 0-6.54-3.5c-2.75-.29-5.42 1.64-6.82 1.64s-3.58-1.64-5.91-1.58A8.71 8.71 0 0 0 18 21.5c-3.16 5.5-.79 13.5 2.24 17.88 1.52 2.16 3.29 4.57 5.62 4.49s3.12-1.44 5.86-1.44 3.51 1.44 5.88 1.38 4-2.17 5.44-4.35a17.76 17.76 0 0 0 2.49-5 7.8 7.8 0 0 1-4.78-7.16"/><path id="Fill-3" class="cls-2" d="M36.28 14.08a7.9 7.9 0 0 0 1.82-5.69 8.15 8.15 0 0 0-5.26 2.7A7.52 7.52 0 0 0 31 16.57a6.73 6.73 0 0 0 5.3-2.49"/></g></g></g></g></g>
    </symbol>
    <symbol id="facebook" viewBox="0 0 10 19">
      <path d="M6.08 18.22V9.91h2.76l.41-3.24H6.08V4.6c0-.94.26-1.57 1.59-1.57l1.7-.01V.13C9.07.09 8.07 0 6.89 0 4.44 0 2.77 1.51 2.77 4.28v2.39H0v3.24h2.77v8.31z"/>
    </symbol>
    <symbol id="fb" viewBox="0 0 32 32">
      <path fill="#fff" d="M0 16a16 16 0 1 1 32 0 16 16 0 0 1-32 0z"/><path d="M20.17 16.35h-2.83v10.38h-4.3V16.35H11V12.7h2.04v-2.37c0-1.69.8-4.33 4.34-4.33l3.18.01v3.55h-2.31c-.38 0-.91.19-.91.99v2.15h3.21z"/>
    </symbol>
    <symbol id="insta" viewBox="0 0 32 32">
      <path fill="#fff" d="M20.27 8h-9.52A2.76 2.76 0 0 0 8 10.75v9.52a2.76 2.76 0 0 0 2.75 2.75h9.52a2.76 2.76 0 0 0 2.75-2.75v-9.52A2.76 2.76 0 0 0 20.27 8zm-4.76 12.45a4.94 4.94 0 1 1 0-9.88 4.94 4.94 0 0 1 0 9.88zm5.1-8.86a1.17 1.17 0 1 1 0-2.34 1.17 1.17 0 0 1 0 2.34z"/><path fill="#fff" d="M15.86 13a2.86 2.86 0 1 0 0 5.71 2.86 2.86 0 0 0 0-5.71z"/><path fill="#fff" d="M15.96 0a15.95 15.95 0 1 0-.01 31.9A15.95 15.95 0 0 0 15.96 0zm9.6 20.76a4.85 4.85 0 0 1-4.85 4.84H11.2a4.84 4.84 0 0 1-4.84-4.84v-9.52A4.84 4.84 0 0 1 11.2 6.4h9.51a4.85 4.85 0 0 1 4.85 4.84z"/>
    </symbol>
    <symbol id="logo-black" viewBox="0 0 207 24">
      <title>logo-black</title><path d="M64.531 9.304c0-2.705 2.123-5.003 4.953-5.003 2.858 0 4.872 2.298 4.872 5.003 0 2.732-2.014 5.03-4.872 5.03-2.83 0-4.953-2.298-4.953-5.03zm18.153 9.548c-1.742.54-2.994.595-4.41-.19l-3.51-2.001c2.232-1.488 3.892-4.003 3.892-7.357 0-4.922-3.702-8.898-9.172-8.898-5.443 0-9.145 3.949-9.145 8.925 0 5.058 4.165 8.898 9.39 8.898h.327l4.763 3.436c2.34 1.677 6.314 1.812 8.6 1.162l-.735-3.975zM94.293.73v9.493c0 2.679-.925 4.247-3.321 4.247-2.34 0-3.238-1.515-3.238-4.247V.73h-4.3v9.954c0 4.246 2.394 7.546 7.566 7.546 5.144 0 7.538-3.3 7.538-7.546V.73h-4.245zm58.92 17.066h4.327V.73h-4.327zM135.06 4.22h4.98v13.577h4.192V4.219h4.872V.73H135.06zm-30.997 13.577h10.805V14.36h-6.641v-3.54h6.395V7.627h-6.395V4.219h6.641V.73h-10.805zm-64.462 0h10.804V14.36H43.82v-3.54h6.342V7.627H43.82V4.219h6.586V.73H39.601zM29.667 7.492h-7.022V.73h-4.218v17.067h4.218V10.98h7.022v6.816h4.273V.73h-4.273zM0 .73v3.49h4.98v13.576h4.165V4.22h4.87V.73zm128.202 7.168c-1.987-.948-3.647-1.245-3.647-2.786 0-1.271 1.088-1.623 1.932-1.623 1.334 0 2.586.946 3.592 2.164l1.579-3.354C129.454.594 127.494.405 126.323.405c-3.755 0-5.742 1.921-5.742 4.923 0 2.976 1.933 4.003 3.73 4.841 1.904.92 3.428 1.055 3.51 2.678.054 1.298-.872 2.083-2.123 2.083-1.524 0-2.775-1.137-3.756-2.38l-2.177 3.164c1.034.839 3.402 2.461 6.423 2.461 3.538 0 5.77-2.244 5.77-5.247 0-2.677-1.742-4.057-3.756-5.03m42.375 6.436c-2.857 0-4.899-2.298-4.899-5.03 0-2.704 2.042-5.003 4.9-5.003 2.857 0 4.871 2.299 4.871 5.002 0 2.733-2.014 5.031-4.872 5.031m0-13.928c-5.444 0-9.171 3.948-9.171 8.897 0 4.978 3.727 8.926 9.171 8.926 5.47 0 9.172-3.948 9.172-8.926 0-4.949-3.701-8.897-9.172-8.897m25.202.324V9.9L183.886 0v17.798h4.218V8.385l11.894 10.25V.73z" fill="#292929"/>
    </symbol>
    <symbol id="logo-white" viewBox="0 0 207 24">
      <title>logo-white</title><path d="M64.531 9.304c0-2.705 2.123-5.003 4.953-5.003 2.858 0 4.872 2.298 4.872 5.003 0 2.732-2.014 5.03-4.872 5.03-2.83 0-4.953-2.298-4.953-5.03zm18.153 9.548c-1.742.54-2.994.595-4.41-.19l-3.51-2.001c2.232-1.488 3.892-4.003 3.892-7.357 0-4.922-3.702-8.898-9.172-8.898-5.443 0-9.145 3.949-9.145 8.925 0 5.058 4.165 8.898 9.39 8.898h.327l4.763 3.436c2.34 1.677 6.314 1.812 8.6 1.162l-.735-3.975zM94.293.73v9.493c0 2.679-.925 4.247-3.321 4.247-2.34 0-3.238-1.515-3.238-4.247V.73h-4.3v9.954c0 4.246 2.394 7.546 7.566 7.546 5.144 0 7.538-3.3 7.538-7.546V.73h-4.245zm58.92 17.066h4.327V.73h-4.327zM135.06 4.22h4.98v13.577h4.192V4.219h4.872V.73H135.06zm-30.997 13.577h10.805V14.36h-6.641v-3.54h6.395V7.627h-6.395V4.219h6.641V.73h-10.805zm-64.462 0h10.804V14.36H43.82v-3.54h6.342V7.627H43.82V4.219h6.586V.73H39.601zM29.667 7.492h-7.022V.73h-4.218v17.067h4.218V10.98h7.022v6.816h4.273V.73h-4.273zM0 .73v3.49h4.98v13.576h4.165V4.22h4.87V.73zm128.202 7.168c-1.987-.948-3.647-1.245-3.647-2.786 0-1.271 1.088-1.623 1.932-1.623 1.334 0 2.586.946 3.592 2.164l1.579-3.354C129.454.594 127.494.405 126.323.405c-3.755 0-5.742 1.921-5.742 4.923 0 2.976 1.933 4.003 3.73 4.841 1.904.92 3.428 1.055 3.51 2.678.054 1.298-.872 2.083-2.123 2.083-1.524 0-2.775-1.137-3.756-2.38l-2.177 3.164c1.034.839 3.402 2.461 6.423 2.461 3.538 0 5.77-2.244 5.77-5.247 0-2.677-1.742-4.057-3.756-5.03m42.375 6.436c-2.857 0-4.899-2.298-4.899-5.03 0-2.704 2.042-5.003 4.9-5.003 2.857 0 4.871 2.299 4.871 5.002 0 2.733-2.014 5.031-4.872 5.031m0-13.928c-5.444 0-9.171 3.948-9.171 8.897 0 4.978 3.727 8.926 9.171 8.926 5.47 0 9.172-3.948 9.172-8.926 0-4.949-3.701-8.897-9.172-8.897m25.202.324V9.9L183.886 0v17.798h4.218V8.385l11.894 10.25V.73z" fill="#FFF"/>
    </symbol>
    <symbol id="ok" viewBox="0 0 32 32">
      <path fill="#fff" d="M15.77 13.5a2.73 2.73 0 0 0 2.73-2.76 2.75 2.75 0 1 0-2.73 2.76z"/><path fill="#fff" d="M15.96 0a15.97 15.97 0 1 0 .01 31.93A15.97 15.97 0 0 0 15.96 0zm.02 4.85a5.62 5.62 0 1 1-.07 11.25 5.62 5.62 0 0 1 .07-11.25zm6.3 13.45a6.8 6.8 0 0 1-2.44 1.58c-.86.33-1.82.5-2.76.62l.3.32 3.84 3.85c.43.44.52.98.28 1.49a1.5 1.5 0 0 1-1.42.89 1.46 1.46 0 0 1-.9-.46c-.96-.97-1.94-1.92-2.89-2.91-.28-.29-.41-.24-.65.01-.97 1-1.96 1.99-2.95 2.97-.45.43-.98.51-1.49.26-.55-.26-.9-.82-.88-1.39.02-.38.21-.67.47-.93l3.79-3.8.29-.3a8.64 8.64 0 0 1-5.09-2.04c-.59-.56-.64-1.2-.18-1.86.39-.57 1.05-.72 1.74-.39.13.06.26.14.38.22a7.56 7.56 0 0 0 8.37.08c.24-.19.51-.35.81-.42.59-.16 1.15.06 1.47.58.36.59.36 1.17-.09 1.63z"/>
    </symbol>
    <symbol id="play" viewBox="0 0 24 29">
      <path fill="#fff" d="M0 0l23.09 14.13L0 28.27z"/>
    </symbol>
    <symbol id="playstore-hovered" viewBox="0 0 190 54.9">
      <title>&#x420;&#x435;&#x441;&#x443;&#x440;&#x441; 1</title><g id="&#x421;&#x43B;&#x43E;&#x439;_2" data-name="&#x421;&#x43B;&#x43E;&#x439; 2"><g id="&#x421;&#x43B;&#x43E;&#x439;_1-2" data-name="&#x421;&#x43B;&#x43E;&#x439; 1"><g id="mobile"><g id="playstore-hovered"><g id="background"><rect id="path-1" class="cls-1" width="190" height="54.9" rx="6.29" ry="6.29"/><rect class="cls-2" x=".31" y=".31" width="189.37" height="54.27" rx="6.29" ry="6.29"/></g><g id="get-it-on"><path id="o" class="cls-3" d="M99.1 18.25a4.5 4.5 0 1 1 4.53-4.5 4.51 4.51 0 0 1-4.53 4.5zm0-1.37a3.13 3.13 0 1 0-3.1-3.13 3.13 3.13 0 0 0 3.1 3.13z"/><path id="e" class="cls-3" d="M68.41 14.25V17h3.65v1H67V9.63h5v1h-3.59v2.63h3.27v1z"/><path id="t" class="cls-3" d="M77 10.63V18h-1.42v-7.37h-2.14v-1h5.66v1z"/><path id="t-2" data-name="t" class="cls-3" d="M89.29 10.63V18H87.9v-7.37h-2.13v-1h5.66v1z"/><path id="i" class="cls-3" d="M83.13 9.63h1.38v8.38h-1.38z"/><path id="n" class="cls-3" d="M105.57 9.63h-.82V18h1.38v-6.54l4 6.54h1.38V9.63h-1.38v6.13l-3.77-6.13z"/><g id="g"><path id="Rectangle-1" class="cls-3" d="M61.84 13.4h3.79l-.04 1.19h-3.75V13.4z"/><path id="Oval-1" class="cls-3" d="M64.89 10.59a4.18 4.18 0 0 0-3.1-1.22 4.41 4.41 0 1 0 0 8.82 4 4 0 0 0 4.16-4.76h-1.11v.39a2.83 2.83 0 0 1-3 3.18 3.18 3.18 0 1 1 0-6.37 3 3 0 0 1 2.19.85z"/></g></g><g id="googleplay"><g id="big-P"><path id="Combined-Shape" class="cls-3" d="M135.82 24.63h7.13a5.18 5.18 0 0 1 4.1 5.38 5.18 5.18 0 0 1-4.1 5.38h-7.13zm1.38 2.6V33h4.8s2.2 0 2.2-2.89-2.2-2.89-2.2-2.89z"/><path id="Rectangle-6" class="cls-3" d="M135.19 24.63h2.52v17.5h-2.52z"/></g><path id="y" class="cls-3" d="M148.52 24.63h2.52v17.5h-2.52z"/><path id="a" class="cls-3" d="M160.36 40.87a6 6 0 0 1-3.55 1.21 3.48 3.48 0 0 1-4-3.63 3.37 3.37 0 0 1 3-3.68 7.85 7.85 0 0 1 4.57.58v-.51A2.39 2.39 0 0 0 158 32.9c-2.29 0-2.8 1.23-2.8 1.23l-2.1-1.23a5.06 5.06 0 0 1 4.69-2.4c4.37 0 5.12 3 5.12 4v7.6h-2.52zm-.18-3.75s-4.85-1.3-5 1.41 4.65 1.41 5.08-.51a4.54 4.54 0 0 0-.08-.89z"/><path id="y-2" data-name="y" class="cls-3" d="M167.59 41.46L165.24 47h2.52l6.8-16.06H172l-3.2 7.56-3.23-7.62h-2.52z"/><path id="e-2" data-name="e" class="cls-3" d="M129.56 35l-8 3.27a2.84 2.84 0 0 0 2.91 1.82 3.75 3.75 0 0 0 2.93-1.65l2 1.36a6.09 6.09 0 0 1-5 2.62 5.91 5.91 0 0 1-5.9-5.88c0-2.23 1.43-6 5.65-6s5.41 4.46 5.41 4.46zm-3-.93a2.77 2.77 0 0 0-2.56-1.26 3.08 3.08 0 0 0-2.84 3.41z"/><path id="i-2" data-name="i" class="cls-3" d="M114.82 24.63h2.66v17.46h-2.66z"/><path id="g-2" data-name="g" class="cls-3" d="M110.56 30.88h2.46v11c0 2.82-1.69 5.79-5.66 5.79a5.65 5.65 0 0 1-5.25-3.5l2.26-.94a3.27 3.27 0 0 0 3.11 2.15 3.06 3.06 0 0 0 3.08-3.35v-1.2a3.93 3.93 0 0 1-3.32 1.48 5.94 5.94 0 0 1 0-11.86 4 4 0 0 1 3.32 1.55zm-3.11 9.24a3.47 3.47 0 0 0 3.25-3.65 3.27 3.27 0 1 0-6.5 0 3.47 3.47 0 0 0 3.24 3.65z"/><path id="o-2" data-name="o" class="cls-3" d="M94.52 42.38a5.94 5.94 0 1 1 6-5.94 6 6 0 0 1-6 5.94zm0-2.33a3.62 3.62 0 1 0-3.37-3.61A3.49 3.49 0 0 0 94.48 40z"/><path id="o-3" data-name="o" class="cls-3" d="M81.57 42.38a5.94 5.94 0 1 1 6-5.94 6 6 0 0 1-6 5.94zm0-2.33a3.62 3.62 0 1 0-3.37-3.61A3.49 3.49 0 0 0 81.53 40z"/><g id="big-g"><path id="Rectangle-1-2" data-name="Rectangle-1" class="cls-3" d="M66.11 32.38h7.9l-.08 2.49h-7.82v-2.49z"/><path id="Oval-1-2" data-name="Oval-1" class="cls-3" d="M72.46 26.54A8.74 8.74 0 0 0 66 24a9.2 9.2 0 1 0 0 18.39c5.21 0 9.55-3.6 8.68-9.92v-.09h-2.32v.81c0 4.52-2.62 6.64-6.31 6.64a6.64 6.64 0 1 1 0-13.27 6.3 6.3 0 0 1 4.58 1.77z"/></g></g><g id="logo"><path id="Shape" class="cls-4" d="M15 9.76a2.8 2.8 0 0 0-.64 2v31a2.8 2.8 0 0 0 .64 2l.1.1 17.36-17.45V27L15.11 9.66z"/><path id="Shape-2" data-name="Shape" class="cls-5" d="M38.2 33.19l-5.74-5.78V27l5.74-5.8.13.07 6.87 3.91c2 1.11 2 2.93 0 4l-6.85 3.89z"/><path id="Shape-3" data-name="Shape" class="cls-6" d="M38.37 33.11l-5.91-5.91L15 44.64a2.28 2.28 0 0 0 2.91.08l20.47-11.61"/><path id="Shape-4" data-name="Shape" class="cls-7" d="M38.37 21.29L17.91 9.67a2.28 2.28 0 0 0-2.91.09L32.46 27.2z"/></g></g></g></g></g>
    </symbol>
    <symbol id="playstore" viewBox="0 0 190 54.9">
      <title>&#x420;&#x435;&#x441;&#x443;&#x440;&#x441; 2</title><g id="&#x421;&#x43B;&#x43E;&#x439;_2" data-name="&#x421;&#x43B;&#x43E;&#x439; 2"><g id="&#x421;&#x43B;&#x43E;&#x439;_1-2" data-name="&#x421;&#x43B;&#x43E;&#x439; 1"><g id="mobile"><g id="playstore"><g id="background"><rect id="path-1" width="190" height="54.9" rx="6.29" ry="6.29"/><rect class="cls-1" x=".31" y=".31" width="189.37" height="54.27" rx="6.29" ry="6.29"/></g><g id="get-it-on"><path id="o" class="cls-2" d="M99.1 18.25a4.5 4.5 0 1 1 4.53-4.5 4.51 4.51 0 0 1-4.53 4.5zm0-1.37a3.13 3.13 0 1 0-3.1-3.13 3.13 3.13 0 0 0 3.1 3.13z"/><path id="e" class="cls-2" d="M68.41 14.25V17h3.65v1H67V9.63h5v1h-3.59v2.63h3.27v1z"/><path id="t" class="cls-2" d="M77 10.63V18h-1.42v-7.37h-2.14v-1h5.66v1z"/><path id="t-2" data-name="t" class="cls-2" d="M89.29 10.63V18H87.9v-7.37h-2.13v-1h5.66v1z"/><path id="i" class="cls-2" d="M83.13 9.63h1.38v8.38h-1.38z"/><path id="n" class="cls-2" d="M105.57 9.63h-.82V18h1.38v-6.54l4 6.54h1.38V9.63h-1.38v6.13l-3.77-6.13z"/><g id="g"><path id="Rectangle-1" class="cls-2" d="M61.84 13.4h3.79l-.04 1.19h-3.75V13.4z"/><path id="Oval-1" class="cls-2" d="M64.89 10.59a4.18 4.18 0 0 0-3.1-1.22 4.41 4.41 0 1 0 0 8.82 4 4 0 0 0 4.16-4.76h-1.11v.39a2.83 2.83 0 0 1-3 3.18 3.18 3.18 0 1 1 0-6.37 3 3 0 0 1 2.19.85z"/></g></g><g id="googleplay"><g id="big-P"><path id="Combined-Shape" class="cls-2" d="M135.82 24.63h7.13a5.18 5.18 0 0 1 4.1 5.38 5.18 5.18 0 0 1-4.1 5.38h-7.13zm1.38 2.6V33h4.8s2.2 0 2.2-2.89-2.2-2.89-2.2-2.89z"/><path id="Rectangle-6" class="cls-2" d="M135.19 24.63h2.52v17.5h-2.52z"/></g><path id="y" class="cls-2" d="M148.52 24.63h2.52v17.5h-2.52z"/><path id="a" class="cls-2" d="M160.36 40.87a6 6 0 0 1-3.55 1.21 3.48 3.48 0 0 1-4-3.63 3.37 3.37 0 0 1 3-3.68 7.85 7.85 0 0 1 4.57.58v-.51A2.39 2.39 0 0 0 158 32.9c-2.29 0-2.8 1.23-2.8 1.23l-2.1-1.23a5.06 5.06 0 0 1 4.69-2.4c4.37 0 5.12 3 5.12 4v7.6h-2.52zm-.18-3.75s-4.85-1.3-5 1.41 4.65 1.41 5.08-.51a4.54 4.54 0 0 0-.08-.89z"/><path id="y-2" data-name="y" class="cls-2" d="M167.59 41.46L165.24 47h2.52l6.8-16.06H172l-3.2 7.56-3.23-7.62h-2.52z"/><path id="e-2" data-name="e" class="cls-2" d="M129.56 35l-8 3.27a2.84 2.84 0 0 0 2.91 1.82 3.75 3.75 0 0 0 2.93-1.65l2 1.36a6.09 6.09 0 0 1-5 2.62 5.91 5.91 0 0 1-5.9-5.88c0-2.23 1.43-6 5.65-6s5.41 4.46 5.41 4.46zm-3-.93a2.77 2.77 0 0 0-2.56-1.26 3.08 3.08 0 0 0-2.84 3.41z"/><path id="i-2" data-name="i" class="cls-2" d="M114.82 24.63h2.66v17.46h-2.66z"/><path id="g-2" data-name="g" class="cls-2" d="M110.56 30.88h2.46v11c0 2.82-1.69 5.79-5.66 5.79a5.65 5.65 0 0 1-5.25-3.5l2.26-.94a3.27 3.27 0 0 0 3.11 2.15 3.06 3.06 0 0 0 3.08-3.35v-1.2a3.93 3.93 0 0 1-3.32 1.48 5.94 5.94 0 0 1 0-11.86 4 4 0 0 1 3.32 1.55zm-3.11 9.24a3.47 3.47 0 0 0 3.25-3.65 3.27 3.27 0 1 0-6.5 0 3.47 3.47 0 0 0 3.24 3.65z"/><path id="o-2" data-name="o" class="cls-2" d="M94.52 42.38a5.94 5.94 0 1 1 6-5.94 6 6 0 0 1-6 5.94zm0-2.33a3.62 3.62 0 1 0-3.37-3.61A3.49 3.49 0 0 0 94.48 40z"/><path id="o-3" data-name="o" class="cls-2" d="M81.57 42.38a5.94 5.94 0 1 1 6-5.94 6 6 0 0 1-6 5.94zm0-2.33a3.62 3.62 0 1 0-3.37-3.61A3.49 3.49 0 0 0 81.53 40z"/><g id="big-g"><path id="Rectangle-1-2" data-name="Rectangle-1" class="cls-2" d="M66.11 32.38h7.9l-.08 2.49h-7.82v-2.49z"/><path id="Oval-1-2" data-name="Oval-1" class="cls-2" d="M72.46 26.54A8.74 8.74 0 0 0 66 24a9.2 9.2 0 1 0 0 18.39c5.21 0 9.55-3.6 8.68-9.92v-.09h-2.32v.81c0 4.52-2.62 6.64-6.31 6.64a6.64 6.64 0 1 1 0-13.27 6.3 6.3 0 0 1 4.58 1.77z"/></g></g><g id="logo"><path id="Shape" class="cls-3" d="M15 9.76a2.8 2.8 0 0 0-.64 2v31a2.8 2.8 0 0 0 .64 2l.1.1 17.36-17.45V27L15.11 9.66z"/><path id="Shape-2" data-name="Shape" class="cls-4" d="M38.2 33.19l-5.74-5.78V27l5.74-5.8.13.07 6.87 3.91c2 1.11 2 2.93 0 4l-6.85 3.89z"/><path id="Shape-3" data-name="Shape" class="cls-5" d="M38.37 33.11l-5.91-5.91L15 44.64a2.28 2.28 0 0 0 2.91.08l20.47-11.61"/><path id="Shape-4" data-name="Shape" class="cls-6" d="M38.37 21.29L17.91 9.67a2.28 2.28 0 0 0-2.91.09L32.46 27.2z"/></g></g></g></g></g>
    </symbol>
    <symbol id="triangle" viewBox="0 0 30 30">
      <path fill="#0071ff" d="M15 0l15 30H0z"/>
    </symbol>
    <symbol id="tw" viewBox="0 0 32 32">
      <path fill="#fff" d="M0 16a16 16 0 1 1 32 0 16 16 0 0 1-32 0z"/><path d="M25.51 11.78c-.68.3-1.41.51-2.18.6a3.88 3.88 0 0 0 1.67-2.1c-.74.43-1.55.75-2.41.92a3.8 3.8 0 0 0-6.47 3.46 10.77 10.77 0 0 1-7.83-3.97 3.8 3.8 0 0 0 1.17 5.07 3.88 3.88 0 0 1-1.72-.47v.05a3.8 3.8 0 0 0 3.05 3.72 3.7 3.7 0 0 1-1.72.07 3.82 3.82 0 0 0 3.55 2.63A7.62 7.62 0 0 1 7 23.34a10.81 10.81 0 0 0 5.82 1.7c6.98 0 10.8-5.78 10.8-10.8l-.01-.49a7.73 7.73 0 0 0 1.9-1.97z"/>
    </symbol>
    <symbol id="twitter" viewBox="0 0 17 14">
      <path d="M5.25 13.7c6.3 0 9.74-5.27 9.74-9.84l-.01-.45a6.94 6.94 0 0 0 1.71-1.79c-.61.28-1.27.46-1.97.55A3.49 3.49 0 0 0 16.23.25c-.66.4-1.4.69-2.18.84A3.4 3.4 0 0 0 11.55 0a3.44 3.44 0 0 0-3.33 4.25A9.69 9.69 0 0 1 1.16.63a3.46 3.46 0 0 0 1.06 4.62 3.4 3.4 0 0 1-1.55-.43v.04a3.44 3.44 0 0 0 2.75 3.39 3.4 3.4 0 0 1-1.55.06 3.44 3.44 0 0 0 3.2 2.41A6.87 6.87 0 0 1 0 12.15a9.63 9.63 0 0 0 5.25 1.55"/>
    </symbol>
    <symbol id="vk" viewBox="0 0 20 12">
      <path d="M11.43 11.71s.34-.04.52-.23c.16-.17.16-.49.16-.49s-.03-1.51.68-1.74c.7-.22 1.59 1.46 2.54 2.11.72.49 1.26.38 1.26.38l2.54-.03s1.33-.08.7-1.12c-.05-.08-.37-.77-1.89-2.16-1.59-1.47-1.37-1.23.54-3.77 1.17-1.54 1.64-2.48 1.49-2.88-.14-.39-1-.29-1-.29l-2.85.02s-.22-.03-.37.06c-.16.1-.26.31-.26.31s-.45 1.19-1.05 2.21c-1.27 2.14-1.78 2.25-1.99 2.12-.48-.31-.36-1.24-.36-1.91 0-2.08.32-2.94-.62-3.17A5.22 5.22 0 0 0 10.14 1a6.34 6.34 0 0 0-2.37.24c-.33.16-.58.51-.43.53.19.03.62.12.85.42.29.4.28 1.29.28 1.29s.17 2.44-.39 2.74c-.39.21-.92-.21-2.05-2.16a17.92 17.92 0 0 1-1.02-2.09s-.09-.21-.24-.32c-.18-.13-.44-.17-.44-.17l-2.71.01s-.41.01-.56.19c-.13.16-.01.48-.01.48s2.13 4.93 4.53 7.42c2.21 2.28 4.72 2.13 4.72 2.13z"/>
    </symbol>
    <symbol id="vksocial" viewBox="0 0 32 32">
      <path fill="#fff" d="M0 16a16 16 0 1 1 32 0 16 16 0 0 1-32 0z"/><path d="M15.21 22.85h1.24s.38-.04.57-.25c.18-.19.17-.55.17-.55s-.02-1.67.76-1.92c.76-.24 1.74 1.62 2.79 2.34.78.54 1.38.42 1.38.42l2.79-.04s1.45-.09.76-1.24c-.05-.09-.4-.84-2.07-2.39-1.74-1.62-1.51-1.36.59-4.17 1.29-1.7 1.8-2.75 1.64-3.19-.16-.43-1.1-.32-1.1-.32l-3.13.02s-.24-.03-.41.08a.88.88 0 0 0-.28.33s-.49 1.32-1.15 2.45c-1.4 2.37-1.96 2.49-2.19 2.35-.53-.35-.4-1.38-.4-2.12 0-2.3.35-3.25-.68-3.5-.34-.08-.59-.14-1.46-.15-1.12-.01-2.07.01-2.6.27-.36.17-.63.56-.47.59.21.02.68.12.93.46.32.44.31 1.42.31 1.42s.18 2.71-.43 3.04c-.42.23-1-.24-2.25-2.39-.64-1.1-1.12-2.32-1.12-2.32s-.09-.23-.26-.35c-.2-.15-.48-.19-.48-.19l-2.98.02s-.45.01-.61.2c-.15.18-.01.53-.01.53s2.33 5.46 4.97 8.21c2.42 2.53 5.18 2.36 5.18 2.36z"/>
    </symbol></svg>