<svg xmlns="http://www.w3.org/2000/svg" width="190" height="55" viewBox="0 0 190 55"><defs><clipPath id="a"><path fill="#fff" d="M1034 747.29a6.29 6.29 0 0 1 6.29-6.29h177.42a6.29 6.29 0 0 1 6.29 6.29v42.32a6.29 6.29 0 0 1-6.29 6.29H1040.3a6.29 6.29 0 0 1-6.29-6.29z"/></clipPath><linearGradient id="b" x1="1064.5" x2="1064.5" y1="753.99" y2="766.44" gradientUnits="userSpaceOnUse"><stop offset="0" stop-color="#fbda09"/><stop offset="1" stop-color="#ffbc00"/></linearGradient><linearGradient id="c" x1="1047" x2="1059.48" y1="771.47" y2="764.68" gradientUnits="userSpaceOnUse"><stop offset="0" stop-color="#01e2ff"/><stop offset="1" stop-color="#01c4ff"/></linearGradient><linearGradient id="d" x1="1049.48" x2="1066.63" y1="751.22" y2="764.56" gradientUnits="userSpaceOnUse"><stop offset="0" stop-color="#28d781"/><stop offset="1" stop-color="#02f076"/></linearGradient><linearGradient id="e" x1="1067.6" x2="1048.93" y1="771.31" y2="785.32" gradientUnits="userSpaceOnUse"><stop offset="0" stop-color="#f2414e"/><stop offset="1" stop-color="#e02554"/></linearGradient></defs><path d="M0 6.29A6.29 6.29 0 0 1 6.29 0H183.7a6.29 6.29 0 0 1 6.3 6.29V48.6a6.29 6.29 0 0 1-6.29 6.29H6.3A6.29 6.29 0 0 1 0 48.61z"/><path fill="none" stroke="#8f8f8f" stroke-miterlimit="50" stroke-opacity=".3" stroke-width="1.26" d="M1034 747.29a6.29 6.29 0 0 1 6.29-6.29h177.42a6.29 6.29 0 0 1 6.29 6.29v42.32a6.29 6.29 0 0 1-6.29 6.29H1040.3a6.29 6.29 0 0 1-6.29-6.29z" clip-path="url(&quot;#a&quot;)" transform="translate(-1034 -741)"/><path fill="#fff" d="M95 13.5a4.5 4.5 0 1 1 9 0 4.5 4.5 0 0 1-9 0zm4 2.5a3 3 0 1 0 0-6 3 3 0 0 0 0 6zm-32-6h5v1h-4v3h4v1h-4v2h4v1h-5zm8 8v-7h-2v-1h6v1h-3v7zm13 0v-7h-2v-1h6v1h-3v7zm-5 0v-8h1v8zm22 0v-8h1.63l3.37 5.47V10h1v7.1l.79 1.28h-1.38l-.23-.38H110v-.29l-4-6.5V18zm-43-5h3.79l-.04 1.19H62z"/><path fill="#fff" d="M61.44 17.82c2.5.03 4.58-1.72 4.16-4.75v-.05h-1.1l.01.39c0 2.17-1.26 3.19-3.03 3.19a3.2 3.2 0 0 1-3.21-3.19 3.2 3.2 0 0 1 3.21-3.18c.89 0 1.65.3 2.2.85l.86-.86A4.18 4.18 0 0 0 61.44 9 4.43 4.43 0 0 0 57 13.41a4.42 4.42 0 0 0 4.44 4.41zM143.13 25s4.1.69 4.1 5.38c0 4.68-4.1 5.38-4.1 5.38H136V25zm-5.75 2.6v5.78h4.84s2.21 0 2.21-2.89-2.21-2.89-2.21-2.89z"/><path fill="#fff" d="M135 43V25h3v18zm14 0V25h3v18zm14.08-8.01v7.63h-2.52v-1.24c-.7.57-1.8 1.1-3.55 1.21-4.01.24-4.01-3.39-4.01-3.64 0-.24-.2-3.21 2.99-3.68a7.84 7.84 0 0 1 4.57.58v-.52c-.18-.68-.73-1.93-2.4-1.93-2.29 0-2.8 1.23-2.8 1.23l-2.09-1.23s1.17-2.4 4.69-2.4c4.34 0 5.11 2.96 5.12 3.99zm-2.7 2.64s-4.84-1.3-5.01 1.4c-.17 2.71 4.65 1.41 5.08-.51 0-.61-.07-.89-.07-.89zm11.56-6.57h2.52l-6.81 16.07h-2.51l2.35-5.55L163 31h2.52l3.22 7.62zm-41.97 4.41s-1.1-4.47-5.32-4.47c-4.22 0-5.65 3.77-5.65 6 0 2.32 1.81 5.88 5.9 5.88 3.34 0 4.97-2.62 4.97-2.62l-2.02-1.36s-1.06 1.66-2.93 1.65c-2.39-.01-2.91-1.82-2.91-1.82zm-8.4 1.25s-.41-2.82 2.84-3.41c1.53-.28 2.53 1.23 2.53 1.23zM115 42V25h3v17zm-4.05-10.62v1.09s-1.07-1.53-3.3-1.47a5.79 5.79 0 0 0-5.65 5.94 5.82 5.82 0 0 0 5.62 5.92c2.37 0 3.33-1.48 3.33-1.48v1.19c0 .86-.33 3.35-3.08 3.35-2.42 0-3.11-2.15-3.11-2.15l-2.26.94s1.28 3.5 5.25 3.5c3.97 0 5.66-2.98 5.66-5.79V31.4zM105 36.5c0-1.93 1.34-3.5 3-3.5s3 1.57 3 3.5-1.34 3.5-3 3.5-3-1.57-3-3.5zM89 37a6 6 0 1 1 12 0 6 6 0 0 1-12 0zm6.5 3a3.5 3.5 0 1 0 0-7 3.5 3.5 0 0 0 0 7zM76 37a6 6 0 1 1 12 0 6 6 0 0 1-12 0zm6.5 3a3.5 3.5 0 1 0 0-7 3.5 3.5 0 0 0 0 7zM66 32h7.9l-.07 2.48H66z"/><path fill="#fff" d="M66.27 42.39c5.21.05 9.55-3.59 8.69-9.92v-.09h-2.31c.02.27.03.54.02.82 0 4.51-2.62 6.63-6.32 6.63a6.66 6.66 0 0 1-6.69-6.63c0-3.67 3-6.64 6.69-6.64a6.3 6.3 0 0 1 4.58 1.77l1.81-1.8A8.75 8.75 0 0 0 66.27 24 9.24 9.24 0 0 0 57 33.2a9.23 9.23 0 0 0 9.27 9.19z"/><path fill="url(#b)" d="M1063.77 750.99l19.28 33.69h-38.55z" transform="translate(-1034 -741)"/><path fill="url(#c)" d="M1047.23 751l17.58 17.37-17.81 18.05z" transform="translate(-1034 -741)"/><path fill="url(#d)" d="M1044 747l21.19 20.95 6.3-5.98z" transform="translate(-1034 -741)"/><path fill="url(#e)" d="M1065.17 768l9.65 9.66-28.82 9.67z" transform="translate(-1034 -741)"/></svg>