<svg xmlns="http://www.w3.org/2000/svg" viewBox="0 0 190 54"><defs><style>.cls-1{fill:#191919}.cls-2{fill:none;stroke:#fff;stroke-opacity:.3;stroke-width:.63px}.cls-3{fill:#fff}</style></defs><title>Ресурс 1</title><g id="Слой_2" data-name="Слой 2"><g id="Слой_1-2" data-name="Слой 1"><g id="mobile"><g id="Appstore-hovered"><g id="backfround-copy"><rect id="path-1" class="cls-1" width="190" height="54" rx="5.03" ry="5.03"/><rect class="cls-2" x=".31" y=".31" width="189.37" height="53.37" rx="5.03" ry="5.03"/></g><path id="App-Store" class="cls-3" d="M70.24 41.47h3.08l-6.74-18.54h-3.11l-6.73 18.54h3l1.72-4.92h7.11zM64.88 26.3h.22l2.7 7.84h-5.63zm16.59 1a4.9 4.9 0 0 0-4.42 2.54h-.21v-2.36h-2.67V46H77v-6.65h.22a4.59 4.59 0 0 0 4.28 2.35c3.55 0 5.82-2.79 5.82-7.23s-2.26-7.22-5.84-7.22zm-.79 12c-2.33 0-3.79-1.82-3.79-4.74s1.46-4.75 3.8-4.75 3.76 1.79 3.76 4.74-1.45 4.67-3.77 4.67zm15.2-12a4.9 4.9 0 0 0-4.42 2.54h-.21v-2.36h-2.67V46h2.78v-6.65h.22a4.59 4.59 0 0 0 4.33 2.35c3.55 0 5.82-2.79 5.82-7.23s-2.26-7.22-5.84-7.22zm-.79 12c-2.33 0-3.79-1.82-3.79-4.74s1.46-4.75 3.8-4.75 3.76 1.79 3.76 4.74-1.41 4.75-3.77 4.75zm12.51-2.74c.21 3.31 3 5.43 7.12 5.43 4.42 0 7.19-2.22 7.19-5.77 0-2.79-1.58-4.33-5.4-5.22l-2.05-.5c-2.46-.63-3.46-1.39-3.46-2.71 0-1.67 1.52-2.76 3.81-2.76s3.67 1.07 3.94 2.77h2.82c-.17-3.12-2.93-5.32-6.72-5.32-4.07 0-6.78 2.2-6.78 5.5 0 2.72 1.54 4.34 4.91 5.13l2.4.58c2.47.58 3.55 1.43 3.55 2.84 0 1.64-1.71 2.84-4 2.84-2.49 0-4.23-1.12-4.47-2.88zm16.7-12.4v3.46H122v2.33h2.31v7.9c0 2.7 1.23 3.78 4.32 3.78a8.58 8.58 0 0 0 1.49-.14v-2.3a8.75 8.75 0 0 1-1 .06c-1.38 0-2-.64-2-2.11v-7.27h3.15v-2.33h-3.15v-3.45zm12.82 15.2c-2.42 0-3.77-1.76-3.77-4.82s1.36-4.8 3.77-4.8 3.77 1.77 3.77 4.8-1.37 4.82-3.77 4.82zm0 2.45c4.11 0 6.63-2.74 6.63-7.27s-2.53-7.26-6.63-7.26-6.64 2.75-6.64 7.26 2.52 7.27 6.64 7.27zm7.9-.27h2.78v-8.33a3.29 3.29 0 0 1 3.58-3.29 7.65 7.65 0 0 1 1.54.17v-2.73a5.86 5.86 0 0 0-1.23-.12 3.8 3.8 0 0 0-3.79 2.38h-.21v-2.14H145zm14.15-11.91a3.38 3.38 0 0 1 3.46 3.62h-7.11a3.59 3.59 0 0 1 3.64-3.62zm3.45 8.13c-.52 1.09-1.67 1.7-3.35 1.7-2.22 0-3.66-1.55-3.75-4v-.15h9.94v-1c0-4.39-2.36-7.05-6.28-7.05s-6.48 2.74-6.48 7.26 2.47 7.22 6.5 7.22c3.22 0 5.47-1.54 6.1-4z"/><path id="Download-on-the" class="cls-3" d="M59.34 8.46v8.83h3.21c2.65 0 4.18-1.62 4.18-4.44s-1.54-4.39-4.18-4.39zm1.38 1.25h1.67c1.84 0 2.93 1.16 2.93 3.16S64.25 16 62.39 16h-1.67zm10.86 6.54c-1.15 0-1.8-.84-1.8-2.29s.65-2.29 1.8-2.29 1.8.84 1.8 2.29-.65 2.29-1.8 2.29zm0 1.17c2 0 3.16-1.3 3.16-3.46s-1.21-3.46-3.16-3.46-3.17 1.31-3.17 3.5 1.2 3.46 3.16 3.46zm13.52-6.79h-1.32l-1.19 5.08h-.1l-1.39-5.08h-1.26l-1.38 5.08h-.1l-1.2-5.08h-1.34l1.85 6.66H79l1.38-4.91h.1l1.38 4.91h1.37zm1.68 6.66h1.32v-3.9a1.58 1.58 0 0 1 1.72-1.69c1 0 1.46.53 1.46 1.6v4h1.32V13a2.39 2.39 0 0 0-4.46-1.29h-.1v-1.08h-1.25zm8.06 0h1.32V8h-1.31zm6.45-1c-1.15 0-1.8-.84-1.8-2.29s.65-2.29 1.8-2.29 1.8.84 1.8 2.29-.65 2.29-1.8 2.29zm0 1.17c2 0 3.16-1.3 3.16-3.46s-1.21-3.46-3.16-3.46-3.15 1.27-3.15 3.46 1.2 3.46 3.16 3.46zm7.25-1.13c-.72 0-1.24-.35-1.24-.95s.42-.9 1.34-1l1.64-.1v.56a1.58 1.58 0 0 1-1.74 1.46zm-.34 1.11a2.26 2.26 0 0 0 2-1h.1v.94h1.27v-4.64c0-1.41-.95-2.24-2.63-2.24-1.52 0-2.6.73-2.74 1.88h1.28c.15-.47.66-.74 1.4-.74.9 0 1.37.4 1.37 1.1v.58l-1.82.1c-1.59.1-2.49.79-2.49 2a2 2 0 0 0 2.23 2zm8 0a2.33 2.33 0 0 0 2.1-1.16h.1v1.05h1.27V8h-1.27v3.66h-.1a2.21 2.21 0 0 0-2.06-1.17c-1.69 0-2.78 1.33-2.78 3.44s1.08 3.44 2.78 3.44zm.38-5.7c1.11 0 1.8.87 1.8 2.26s-.69 2.26-1.8 2.26-1.79-.85-1.79-2.26.68-2.26 1.79-2.26zm12 4.55c-1.15 0-1.8-.84-1.8-2.29s.65-2.29 1.8-2.29 1.8.84 1.8 2.29-.65 2.29-1.8 2.29zm0 1.17c2 0 3.16-1.3 3.16-3.46s-1.21-3.46-3.16-3.46-3.16 1.31-3.16 3.46 1.2 3.46 3.16 3.46zm5.06-.13H135v-3.9a1.58 1.58 0 0 1 1.72-1.69c1 0 1.46.53 1.46 1.6v4h1.32V13a2.39 2.39 0 0 0-4.5-1.31h-.1v-1.06h-1.27zM145.91 9v1.65h-1.1v1.11h1.1v3.76c0 1.28.58 1.8 2.06 1.8a4.09 4.09 0 0 0 .71-.07v-1.1a4.17 4.17 0 0 1-.49 0c-.66 0-.95-.31-.95-1v-3.38h1.5v-1.11h-1.5V9zm4.71 8.28h1.32V13.4a1.61 1.61 0 0 1 1.75-1.69c1 0 1.5.54 1.5 1.6v4h1.32V13a2.21 2.21 0 0 0-2.37-2.48A2.16 2.16 0 0 0 152 11.7h-.1V8h-1.31zm10.83-5.67a1.61 1.61 0 0 1 1.65 1.73h-3.4a1.71 1.71 0 0 1 1.74-1.73zm1.64 3.87a1.61 1.61 0 0 1-1.59.81 1.76 1.76 0 0 1-1.78-1.91v-.07h4.73v-.46c0-2.09-1.13-3.36-3-3.36s-3.09 1.35-3.09 3.48 1.18 3.44 3.1 3.44a2.72 2.72 0 0 0 2.9-1.93z"/><g id="logo_apple" data-name="logo apple"><path id="Fill-2" class="cls-3" d="M40.75 27.26a8.06 8.06 0 0 1 3.86-6.76 8.32 8.32 0 0 0-6.54-3.5c-2.75-.29-5.42 1.64-6.82 1.64s-3.58-1.64-5.91-1.58A8.71 8.71 0 0 0 18 21.5c-3.16 5.5-.79 13.5 2.24 17.88 1.52 2.16 3.29 4.57 5.62 4.49s3.12-1.44 5.86-1.44 3.51 1.44 5.88 1.38 4-2.17 5.44-4.35a17.76 17.76 0 0 0 2.49-5 7.8 7.8 0 0 1-4.78-7.16"/><path id="Fill-3" class="cls-3" d="M36.28 14.08a7.9 7.9 0 0 0 1.82-5.69 8.15 8.15 0 0 0-5.26 2.7A7.52 7.52 0 0 0 31 16.57a6.73 6.73 0 0 0 5.3-2.49"/></g></g></g></g></g></svg>