<svg xmlns="http://www.w3.org/2000/svg" width="32" height="32" viewBox="0 0 32 32"><path fill="#fff" d="M20.27 8h-9.52A2.76 2.76 0 0 0 8 10.75v9.52a2.76 2.76 0 0 0 2.75 2.75h9.52a2.76 2.76 0 0 0 2.75-2.75v-9.52A2.76 2.76 0 0 0 20.27 8zm-4.76 12.45a4.94 4.94 0 1 1 0-9.88 4.94 4.94 0 0 1 0 9.88zm5.1-8.86a1.17 1.17 0 1 1 0-2.34 1.17 1.17 0 0 1 0 2.34z"/><path fill="#fff" d="M15.86 13a2.86 2.86 0 1 0 0 5.71 2.86 2.86 0 0 0 0-5.71z"/><path fill="#fff" d="M15.96 0a15.95 15.95 0 1 0-.01 31.9A15.95 15.95 0 0 0 15.96 0zm9.6 20.76a4.85 4.85 0 0 1-4.85 4.84H11.2a4.84 4.84 0 0 1-4.84-4.84v-9.52A4.84 4.84 0 0 1 11.2 6.4h9.51a4.85 4.85 0 0 1 4.85 4.84z"/></svg>