<svg xmlns="http://www.w3.org/2000/svg" width="32" height="32" viewBox="0 0 32 32"><path fill="#fff" d="M15.77 13.5a2.73 2.73 0 0 0 2.73-2.76 2.75 2.75 0 1 0-2.73 2.76z"/><path fill="#fff" d="M15.96 0a15.97 15.97 0 1 0 .01 31.93A15.97 15.97 0 0 0 15.96 0zm.02 4.85a5.62 5.62 0 1 1-.07 11.25 5.62 5.62 0 0 1 .07-11.25zm6.3 13.45a6.8 6.8 0 0 1-2.44 1.58c-.86.33-1.82.5-2.76.62l.3.32 3.84 3.85c.43.44.52.98.28 1.49a1.5 1.5 0 0 1-1.42.89 1.46 1.46 0 0 1-.9-.46c-.96-.97-1.94-1.92-2.89-2.91-.28-.29-.41-.24-.65.01-.97 1-1.96 1.99-2.95 2.97-.45.43-.98.51-1.49.26-.55-.26-.9-.82-.88-1.39.02-.38.21-.67.47-.93l3.79-3.8.29-.3a8.64 8.64 0 0 1-5.09-2.04c-.59-.56-.64-1.2-.18-1.86.39-.57 1.05-.72 1.74-.39.13.06.26.14.38.22a7.56 7.56 0 0 0 8.37.08c.24-.19.51-.35.81-.42.59-.16 1.15.06 1.47.58.36.59.36 1.17-.09 1.63z"/></svg>