<svg xmlns="http://www.w3.org/2000/svg" width="32" height="32" viewBox="0 0 32 32"><path fill="#fff" d="M0 16a16 16 0 1 1 32 0 16 16 0 0 1-32 0z"/><path d="M25.51 11.78c-.68.3-1.41.51-2.18.6a3.88 3.88 0 0 0 1.67-2.1c-.74.43-1.55.75-2.41.92a3.8 3.8 0 0 0-6.47 3.46 10.77 10.77 0 0 1-7.83-3.97 3.8 3.8 0 0 0 1.17 5.07 3.88 3.88 0 0 1-1.72-.47v.05a3.8 3.8 0 0 0 3.05 3.72 3.7 3.7 0 0 1-1.72.07 3.82 3.82 0 0 0 3.55 2.63A7.62 7.62 0 0 1 7 23.34a10.81 10.81 0 0 0 5.82 1.7c6.98 0 10.8-5.78 10.8-10.8l-.01-.49a7.73 7.73 0 0 0 1.9-1.97z"/></svg>