<svg width="207" height="24" viewBox="0 0 207 24" xmlns="http://www.w3.org/2000/svg"><title>logo-white</title><path d="M64.531 9.304c0-2.705 2.123-5.003 4.953-5.003 2.858 0 4.872 2.298 4.872 5.003 0 2.732-2.014 5.03-4.872 5.03-2.83 0-4.953-2.298-4.953-5.03zm18.153 9.548c-1.742.54-2.994.595-4.41-.19l-3.51-2.001c2.232-1.488 3.892-4.003 3.892-7.357 0-4.922-3.702-8.898-9.172-8.898-5.443 0-9.145 3.949-9.145 8.925 0 5.058 4.165 8.898 9.39 8.898h.327l4.763 3.436c2.34 1.677 6.314 1.812 8.6 1.162l-.735-3.975zM94.293.73v9.493c0 2.679-.925 4.247-3.321 4.247-2.34 0-3.238-1.515-3.238-4.247V.73h-4.3v9.954c0 4.246 2.394 7.546 7.566 7.546 5.144 0 7.538-3.3 7.538-7.546V.73h-4.245zm58.92 17.066h4.327V.73h-4.327zM135.06 4.22h4.98v13.577h4.192V4.219h4.872V.73H135.06zm-30.997 13.577h10.805V14.36h-6.641v-3.54h6.395V7.627h-6.395V4.219h6.641V.73h-10.805zm-64.462 0h10.804V14.36H43.82v-3.54h6.342V7.627H43.82V4.219h6.586V.73H39.601zM29.667 7.492h-7.022V.73h-4.218v17.067h4.218V10.98h7.022v6.816h4.273V.73h-4.273zM0 .73v3.49h4.98v13.576h4.165V4.22h4.87V.73zm128.202 7.168c-1.987-.948-3.647-1.245-3.647-2.786 0-1.271 1.088-1.623 1.932-1.623 1.334 0 2.586.946 3.592 2.164l1.579-3.354C129.454.594 127.494.405 126.323.405c-3.755 0-5.742 1.921-5.742 4.923 0 2.976 1.933 4.003 3.73 4.841 1.904.92 3.428 1.055 3.51 2.678.054 1.298-.872 2.083-2.123 2.083-1.524 0-2.775-1.137-3.756-2.38l-2.177 3.164c1.034.839 3.402 2.461 6.423 2.461 3.538 0 5.77-2.244 5.77-5.247 0-2.677-1.742-4.057-3.756-5.03m42.375 6.436c-2.857 0-4.899-2.298-4.899-5.03 0-2.704 2.042-5.003 4.9-5.003 2.857 0 4.871 2.299 4.871 5.002 0 2.733-2.014 5.031-4.872 5.031m0-13.928c-5.444 0-9.171 3.948-9.171 8.897 0 4.978 3.727 8.926 9.171 8.926 5.47 0 9.172-3.948 9.172-8.926 0-4.949-3.701-8.897-9.172-8.897m25.202.324V9.9L183.886 0v17.798h4.218V8.385l11.894 10.25V.73z" fill="#FFF"/></svg>