<svg xmlns="http://www.w3.org/2000/svg" viewBox="0 0 190 54.9"><defs><style>.cls-1{fill:#191919}.cls-2{fill:none;stroke:#8f8f8f;stroke-opacity:.3;stroke-width:.63px}.cls-3{fill:#fff}.cls-4{fill:url(#Безымянный_градиент)}.cls-5{fill:url(#Безымянный_градиент_2)}.cls-6{fill:url(#Безымянный_градиент_3)}.cls-7{fill:url(#Безымянный_градиент_4)}</style><linearGradient id="Безымянный_градиент" x1="-197.48" y1="413.46" x2="-198.78" y2="412.79" gradientTransform="matrix(18.09 0 0 -35.08 3603.9 14517.27)" gradientUnits="userSpaceOnUse"><stop offset="0" stop-color="#00a0ff"/><stop offset=".01" stop-color="#00a1ff"/><stop offset=".26" stop-color="#00beff"/><stop offset=".51" stop-color="#00d2ff"/><stop offset=".76" stop-color="#00dfff"/><stop offset="1" stop-color="#00e3ff"/></linearGradient><linearGradient id="Безымянный_градиент_2" x1="-194.14" y1="392.79" x2="-196.53" y2="392.79" gradientTransform="matrix(14.21 0 0 -11.98 2806.56 4734.42)" gradientUnits="userSpaceOnUse"><stop offset="0" stop-color="#ffe000"/><stop offset=".41" stop-color="#ffbd00"/><stop offset=".78" stop-color="orange"/><stop offset="1" stop-color="#ff9c00"/></linearGradient><linearGradient id="Безымянный_градиент_3" x1="-200.15" y1="403.39" x2="-201.51" y2="401.62" gradientTransform="matrix(23.37 0 0 -18.01 4711.88 7296.32)" gradientUnits="userSpaceOnUse"><stop offset="0" stop-color="#ff3a44"/><stop offset="1" stop-color="#c31162"/></linearGradient><linearGradient id="Безымянный_градиент_4" x1="-201.2" y1="404.11" x2="-200.59" y2="403.32" gradientTransform="matrix(23.37 0 0 -18.01 4711.86 7278.31)" gradientUnits="userSpaceOnUse"><stop offset="0" stop-color="#32a071"/><stop offset=".07" stop-color="#2da771"/><stop offset=".48" stop-color="#15cf74"/><stop offset=".8" stop-color="#06e775"/><stop offset="1" stop-color="#00f076"/></linearGradient></defs><title>Ресурс 1</title><g id="Слой_2" data-name="Слой 2"><g id="Слой_1-2" data-name="Слой 1"><g id="mobile"><g id="playstore-hovered"><g id="background"><rect id="path-1" class="cls-1" width="190" height="54.9" rx="6.29" ry="6.29"/><rect class="cls-2" x=".31" y=".31" width="189.37" height="54.27" rx="6.29" ry="6.29"/></g><g id="get-it-on"><path id="o" class="cls-3" d="M99.1 18.25a4.5 4.5 0 1 1 4.53-4.5 4.51 4.51 0 0 1-4.53 4.5zm0-1.37a3.13 3.13 0 1 0-3.1-3.13 3.13 3.13 0 0 0 3.1 3.13z"/><path id="e" class="cls-3" d="M68.41 14.25V17h3.65v1H67V9.63h5v1h-3.59v2.63h3.27v1z"/><path id="t" class="cls-3" d="M77 10.63V18h-1.42v-7.37h-2.14v-1h5.66v1z"/><path id="t-2" data-name="t" class="cls-3" d="M89.29 10.63V18H87.9v-7.37h-2.13v-1h5.66v1z"/><path id="i" class="cls-3" d="M83.13 9.63h1.38v8.38h-1.38z"/><path id="n" class="cls-3" d="M105.57 9.63h-.82V18h1.38v-6.54l4 6.54h1.38V9.63h-1.38v6.13l-3.77-6.13z"/><g id="g"><path id="Rectangle-1" class="cls-3" d="M61.84 13.4h3.79l-.04 1.19h-3.75V13.4z"/><path id="Oval-1" class="cls-3" d="M64.89 10.59a4.18 4.18 0 0 0-3.1-1.22 4.41 4.41 0 1 0 0 8.82 4 4 0 0 0 4.16-4.76h-1.11v.39a2.83 2.83 0 0 1-3 3.18 3.18 3.18 0 1 1 0-6.37 3 3 0 0 1 2.19.85z"/></g></g><g id="googleplay"><g id="big-P"><path id="Combined-Shape" class="cls-3" d="M135.82 24.63h7.13a5.18 5.18 0 0 1 4.1 5.38 5.18 5.18 0 0 1-4.1 5.38h-7.13zm1.38 2.6V33h4.8s2.2 0 2.2-2.89-2.2-2.89-2.2-2.89z"/><path id="Rectangle-6" class="cls-3" d="M135.19 24.63h2.52v17.5h-2.52z"/></g><path id="y" class="cls-3" d="M148.52 24.63h2.52v17.5h-2.52z"/><path id="a" class="cls-3" d="M160.36 40.87a6 6 0 0 1-3.55 1.21 3.48 3.48 0 0 1-4-3.63 3.37 3.37 0 0 1 3-3.68 7.85 7.85 0 0 1 4.57.58v-.51A2.39 2.39 0 0 0 158 32.9c-2.29 0-2.8 1.23-2.8 1.23l-2.1-1.23a5.06 5.06 0 0 1 4.69-2.4c4.37 0 5.12 3 5.12 4v7.6h-2.52zm-.18-3.75s-4.85-1.3-5 1.41 4.65 1.41 5.08-.51a4.54 4.54 0 0 0-.08-.89z"/><path id="y-2" data-name="y" class="cls-3" d="M167.59 41.46L165.24 47h2.52l6.8-16.06H172l-3.2 7.56-3.23-7.62h-2.52z"/><path id="e-2" data-name="e" class="cls-3" d="M129.56 35l-8 3.27a2.84 2.84 0 0 0 2.91 1.82 3.75 3.75 0 0 0 2.93-1.65l2 1.36a6.09 6.09 0 0 1-5 2.62 5.91 5.91 0 0 1-5.9-5.88c0-2.23 1.43-6 5.65-6s5.41 4.46 5.41 4.46zm-3-.93a2.77 2.77 0 0 0-2.56-1.26 3.08 3.08 0 0 0-2.84 3.41z"/><path id="i-2" data-name="i" class="cls-3" d="M114.82 24.63h2.66v17.46h-2.66z"/><path id="g-2" data-name="g" class="cls-3" d="M110.56 30.88h2.46v11c0 2.82-1.69 5.79-5.66 5.79a5.65 5.65 0 0 1-5.25-3.5l2.26-.94a3.27 3.27 0 0 0 3.11 2.15 3.06 3.06 0 0 0 3.08-3.35v-1.2a3.93 3.93 0 0 1-3.32 1.48 5.94 5.94 0 0 1 0-11.86 4 4 0 0 1 3.32 1.55zm-3.11 9.24a3.47 3.47 0 0 0 3.25-3.65 3.27 3.27 0 1 0-6.5 0 3.47 3.47 0 0 0 3.24 3.65z"/><path id="o-2" data-name="o" class="cls-3" d="M94.52 42.38a5.94 5.94 0 1 1 6-5.94 6 6 0 0 1-6 5.94zm0-2.33a3.62 3.62 0 1 0-3.37-3.61A3.49 3.49 0 0 0 94.48 40z"/><path id="o-3" data-name="o" class="cls-3" d="M81.57 42.38a5.94 5.94 0 1 1 6-5.94 6 6 0 0 1-6 5.94zm0-2.33a3.62 3.62 0 1 0-3.37-3.61A3.49 3.49 0 0 0 81.53 40z"/><g id="big-g"><path id="Rectangle-1-2" data-name="Rectangle-1" class="cls-3" d="M66.11 32.38h7.9l-.08 2.49h-7.82v-2.49z"/><path id="Oval-1-2" data-name="Oval-1" class="cls-3" d="M72.46 26.54A8.74 8.74 0 0 0 66 24a9.2 9.2 0 1 0 0 18.39c5.21 0 9.55-3.6 8.68-9.92v-.09h-2.32v.81c0 4.52-2.62 6.64-6.31 6.64a6.64 6.64 0 1 1 0-13.27 6.3 6.3 0 0 1 4.58 1.77z"/></g></g><g id="logo"><path id="Shape" class="cls-4" d="M15 9.76a2.8 2.8 0 0 0-.64 2v31a2.8 2.8 0 0 0 .64 2l.1.1 17.36-17.45V27L15.11 9.66z"/><path id="Shape-2" data-name="Shape" class="cls-5" d="M38.2 33.19l-5.74-5.78V27l5.74-5.8.13.07 6.87 3.91c2 1.11 2 2.93 0 4l-6.85 3.89z"/><path id="Shape-3" data-name="Shape" class="cls-6" d="M38.37 33.11l-5.91-5.91L15 44.64a2.28 2.28 0 0 0 2.91.08l20.47-11.61"/><path id="Shape-4" data-name="Shape" class="cls-7" d="M38.37 21.29L17.91 9.67a2.28 2.28 0 0 0-2.91.09L32.46 27.2z"/></g></g></g></g></g></svg>