<svg xmlns="http://www.w3.org/2000/svg" width="20" height="12" viewBox="0 0 20 12"><path d="M11.43 11.71s.34-.04.52-.23c.16-.17.16-.49.16-.49s-.03-1.51.68-1.74c.7-.22 1.59 1.46 2.54 2.11.72.49 1.26.38 1.26.38l2.54-.03s1.33-.08.7-1.12c-.05-.08-.37-.77-1.89-2.16-1.59-1.47-1.37-1.23.54-3.77 1.17-1.54 1.64-2.48 1.49-2.88-.14-.39-1-.29-1-.29l-2.85.02s-.22-.03-.37.06c-.16.1-.26.31-.26.31s-.45 1.19-1.05 2.21c-1.27 2.14-1.78 2.25-1.99 2.12-.48-.31-.36-1.24-.36-1.91 0-2.08.32-2.94-.62-3.17A5.22 5.22 0 0 0 10.14 1a6.34 6.34 0 0 0-2.37.24c-.33.16-.58.51-.43.53.19.03.62.12.85.42.29.4.28 1.29.28 1.29s.17 2.44-.39 2.74c-.39.21-.92-.21-2.05-2.16a17.92 17.92 0 0 1-1.02-2.09s-.09-.21-.24-.32c-.18-.13-.44-.17-.44-.17l-2.71.01s-.41.01-.56.19c-.13.16-.01.48-.01.48s2.13 4.93 4.53 7.42c2.21 2.28 4.72 2.13 4.72 2.13z"/></svg>